SplineFontDB: 3.2
FontName: irkbitig
FullName: irkbitig
FamilyName: irkbitig
Weight: Book
Copyright: BabelStone Irk Bitig (c) BabelStone, 2011-2013.
Version: 
ItalicAngle: 0
UnderlinePosition: -300
UnderlineWidth: 200
Ascent: 1638
Descent: 410
InvalidEm: 0
sfntRevision: 0x00010000
LayerCount: 2
Layer: 0 1 "Back" 1
Layer: 1 1 "Fore" 0
XUID: [1021 395 -1524622132 1314412]
StyleMap: 0x0040
FSType: 8
OS2Version: 3
OS2_WeightWidthSlopeOnly: 0
OS2_UseTypoMetrics: 0
CreationTime: 1297721345
ModificationTime: 1779426964
PfmFamily: 17
TTFWeight: 400
TTFWidth: 5
LineGap: 0
VLineGap: 0
Panose: 2 0 0 0 0 0 0 0 0 0
OS2TypoAscent: 1400
OS2TypoAOffset: 0
OS2TypoDescent: -400
OS2TypoDOffset: 0
OS2TypoLinegap: 205
OS2WinAscent: 2000
OS2WinAOffset: 0
OS2WinDescent: 500
OS2WinDOffset: 0
HheadAscent: 2000
HheadAOffset: 0
HheadDescent: -500
HheadDOffset: 0
OS2SubXSize: 1434
OS2SubYSize: 1331
OS2SubXOff: 0
OS2SubYOff: 283
OS2SupXSize: 1434
OS2SupYSize: 1331
OS2SupXOff: 0
OS2SupYOff: 977
OS2StrikeYSize: 200
OS2StrikeYPos: 1300
OS2Vendor: 'ACW '
OS2CodePages: 00000001.00000000
OS2UnicodeRanges: 00000047.02004000.00000000.00000000
MarkAttachClasses: 1
DEI: 91125
ShortTable: cvt  2
  68
  1297
EndShort
ShortTable: maxp 16
  1
  0
  41
  56
  3
  0
  0
  0
  0
  0
  0
  0
  0
  46
  0
  0
EndShort
LangName: 1033 "BabelStone Irk Bitig +AKkA BabelStone, 2011-2013." "" "Regular" "FontForge 2.0 : irkbitig : 1-1-2024" "" "Version "
GaspTable: 1 65535 2 0
Encoding: UnicodeFull
Compacted: 1
UnicodeInterp: none
NameList: AGL For New Fonts
DisplaySize: -48
AntiAlias: 1
FitToEm: 0
WidthSeparation: 307
WinInfo: 0 34 12
BeginChars: 1114112 43

StartChar: colon
Encoding: 58 58 0
Width: 656
GlyphClass: 2
Flags: MW
LayerCount: 2
Fore
SplineSet
454 1071 m 1,0,1
 523 1068 523 1068 550 911 c 1,2,3
 550 817 550 817 125 815 c 1,4,5
 125 1048 125 1048 454 1071 c 1,0,1
435 484 m 0,6,7
 529 484 529 484 543 277 c 1,8,9
 435 225 435 225 202 216 c 1,10,11
 125 236 125 236 125 372 c 1,12,13
 220 484 220 484 435 484 c 0,6,7
EndSplineSet
EndChar

StartChar: u10C00
Encoding: 68608 68608 1
Width: 1793
GlyphClass: 2
Flags: MW
LayerCount: 2
Fore
SplineSet
899 1355 m 1,0,1
 1014 1355 1014 1355 1129 1163 c 1,2,-1
 1206 1163 l 1,3,-1
 1360 1201 l 1,4,-1
 1513 1201 l 2,5,6
 1654 1201 1654 1201 1763 1096 c 1,7,-1
 1763 1067 l 1,8,9
 1593 1009 1593 1009 1187 951 c 1,10,-1
 1168 932 l 1,11,-1
 1168 625 l 1,12,13
 1058 203 1058 203 976 203 c 1,14,-1
 611 145 l 1,15,-1
 611 260 l 2,16,17
 611 330 611 330 553 375 c 1,18,-1
 131 318 l 1,19,-1
 35 337 l 1,20,-1
 35 395 l 2,21,22
 35 467 35 467 477 548 c 1,23,-1
 592 548 l 1,24,-1
 592 683 l 1,25,26
 539 1143 539 1143 438 1143 c 1,27,-1
 438 1182 l 2,28,29
 438 1278 438 1278 899 1355 c 1,0,1
EndSplineSet
EndChar

StartChar: u10C03
Encoding: 68611 68611 2
Width: 1327
GlyphClass: 2
Flags: MW
LayerCount: 2
Fore
SplineSet
325 1326 m 0,0,1
 396 1326 396 1326 517 1249 c 1,2,-1
 940 1326 l 1,3,-1
 1170 1326 l 1,4,5
 1285 1284 1285 1284 1285 1218 c 1,6,7
 1080 1128 1080 1128 748 1084 c 1,8,-1
 748 1009 l 1,9,-1
 824 673 l 1,10,-1
 824 520 l 2,11,12
 824 343 824 343 594 277 c 1,13,14
 443 220 443 220 248 174 c 1,15,16
 157 181 157 181 152 251 c 1,17,-1
 210 366 l 1,18,-1
 210 673 l 1,19,20
 114 1038 114 1038 114 1134 c 256,21,22
 114 1230 114 1230 176 1278 c 256,23,24
 238 1326 238 1326 325 1326 c 0,0,1
EndSplineSet
EndChar

StartChar: u10C06
Encoding: 68614 68614 3
Width: 1495
GlyphClass: 2
Flags: MW
LayerCount: 2
Fore
SplineSet
482 1441 m 1,0,1
 597 1415 597 1415 765 1108 c 1,2,-1
 1171 1025 l 1,3,-1
 1255 1025 l 1,4,-1
 1404 1041 l 1,5,-1
 1471 991 l 1,6,7
 648 618 648 618 648 375 c 2,8,-1
 648 342 l 1,9,-1
 665 175 l 1,10,-1
 182 59 l 1,11,12
 116 75 116 75 116 159 c 2,13,-1
 116 225 l 2,14,15
 116 386 116 386 332 575 c 1,16,17
 542 692 542 692 915 791 c 1,18,-1
 965 858 l 1,19,-1
 932 891 l 1,20,-1
 682 891 l 1,21,-1
 365 875 l 1,22,23
 205 875 205 875 49 1258 c 1,24,25
 49 1324 49 1324 182 1324 c 1,26,27
 291 1441 291 1441 482 1441 c 1,0,1
EndSplineSet
EndChar

StartChar: u10C07
Encoding: 68615 68615 4
Width: 1530
GlyphClass: 2
Flags: MW
LayerCount: 2
Fore
SplineSet
1353 1335 m 1,0,1
 1441 1326 1441 1326 1449 1278 c 1,2,-1
 1430 990 l 1,3,-1
 1430 951 l 1,4,5
 1468 894 1468 894 1468 817 c 1,6,7
 719 656 719 656 719 529 c 1,8,9
 615 279 615 279 355 279 c 1,10,11
 98 164 98 164 28 164 c 2,12,-1
 9 164 l 1,13,14
 278 416 278 416 278 817 c 1,15,-1
 182 1162 l 1,16,-1
 470 1258 l 1,17,-1
 604 1258 l 1,18,19
 795 1106 795 1106 795 913 c 2,20,-1
 795 721 l 1,21,-1
 873 741 l 1,22,-1
 931 778 l 1,23,-1
 931 1082 l 2,24,25
 931 1252 931 1252 1353 1335 c 1,0,1
EndSplineSet
EndChar

StartChar: u10C09
Encoding: 68617 68617 5
Width: 1369
GlyphClass: 2
Flags: MW
LayerCount: 2
Fore
SplineSet
331 1350 m 1,0,1
 873 1312 873 1312 1176 1177 c 1,2,3
 1291 1022 1291 1022 1291 739 c 4,4,5
 1291 614 1291 614 945 355 c 5,6,7
 667 247 667 247 331 240 c 5,8,9
 206 283 206 283 81 586 c 5,10,-1
 81 605 l 6,11,12
 81 643 81 643 369 701 c 5,13,14
 593 701 593 701 638 490 c 5,15,-1
 696 432 l 5,16,-1
 753 432 l 5,17,18
 849 608 849 608 849 701 c 4,19,20
 849 1120 849 1120 408 1196 c 1,21,-1
 81 1196 l 1,22,-1
 43 1235 l 1,23,24
 43 1331 43 1331 331 1350 c 1,0,1
EndSplineSet
EndChar

StartChar: u10C0B
Encoding: 68619 68619 6
Width: 1627
GlyphClass: 2
Flags: MW
LayerCount: 2
Fore
SplineSet
785 1460 m 1,0,1
 1169 1427 1169 1427 1169 1230 c 1,2,-1
 1130 1076 l 1,3,4
 1591 1010 1591 1010 1591 904 c 2,5,-1
 1591 884 l 2,6,7
 1591 827 1591 827 1246 692 c 1,8,-1
 1246 673 l 2,9,10
 1246 635 1246 635 1399 616 c 1,11,12
 1534 475 1534 475 1534 347 c 0,13,14
 1534 97 1534 97 1188 97 c 1,15,16
 1120 40 1120 40 996 40 c 1,17,-1
 977 59 l 1,18,-1
 977 155 l 1,19,20
 1073 287 1073 287 1073 404 c 2,21,-1
 1073 443 l 1,22,-1
 996 520 l 1,23,-1
 919 520 l 2,24,25
 842 520 842 520 708 155 c 1,26,-1
 458 78 l 1,27,-1
 439 78 l 2,28,29
 324 78 324 78 324 193 c 2,30,-1
 324 212 l 2,31,32
 324 401 324 401 554 558 c 1,33,-1
 535 577 l 1,34,-1
 516 577 l 1,35,-1
 362 558 l 1,36,-1
 151 558 l 1,37,38
 36 583 36 583 36 616 c 2,39,-1
 36 673 l 1,40,41
 410 808 410 808 535 1076 c 1,42,43
 593 1147 593 1147 593 1211 c 2,44,-1
 593 1388 l 2,45,46
 593 1427 593 1427 785 1460 c 1,0,1
727 769 m 1,47,-1
 727 750 l 1,48,-1
 766 712 l 1,49,-1
 842 712 l 1,50,51
 1073 775 1073 775 1073 846 c 2,52,-1
 1073 865 l 1,53,-1
 1034 904 l 1,54,-1
 1015 904 l 1,55,-1
 727 769 l 1,47,-1
EndSplineSet
EndChar

StartChar: u10C0D
Encoding: 68621 68621 7
Width: 1759
GlyphClass: 2
Flags: MW
LayerCount: 2
Fore
SplineSet
1462 1355 m 2,0,-1
 1519 1355 l 1,1,2
 1635 1343 1635 1343 1635 1297 c 1,3,-1
 1500 1105 l 1,4,-1
 1500 1048 l 2,5,6
 1500 977 1500 977 1731 932 c 1,7,-1
 1731 875 l 2,8,9
 1731 824 1731 824 1423 721 c 1,10,11
 1078 756 1078 756 1059 952 c 1,12,-1
 1059 1009 l 1,13,14
 1204 1355 1204 1355 1462 1355 c 2,0,-1
540 1316 m 2,15,-1
 579 1316 l 2,16,17
 777 1316 777 1316 905 1144 c 1,18,-1
 905 1105 l 1,19,20
 419 744 419 744 99 664 c 1,21,-1
 41 683 l 1,22,-1
 41 740 l 1,23,-1
 329 971 l 1,24,-1
 348 990 l 1,25,-1
 348 1009 l 1,26,27
 252 1139 252 1139 252 1201 c 1,28,29
 316 1316 316 1316 540 1316 c 2,15,-1
809 798 m 1,30,31
 1048 798 1048 798 1231 568 c 1,32,-1
 1231 529 l 1,33,34
 759 218 759 218 483 145 c 1,35,-1
 463 164 l 1,36,-1
 463 184 l 1,37,38
 675 353 675 353 675 452 c 1,39,-1
 540 644 l 1,40,41
 540 752 540 752 809 798 c 1,30,31
EndSplineSet
EndChar

StartChar: u10C0F
Encoding: 68623 68623 8
Width: 1394
GlyphClass: 2
Flags: MW
LayerCount: 2
Fore
SplineSet
324 1326 m 0,0,1
 415 1326 415 1326 554 1230 c 1,2,3
 1034 1230 1034 1230 1034 1153 c 2,4,-1
 1034 1134 l 1,5,6
 944 1134 944 1134 516 827 c 1,7,8
 900 750 900 750 1130 750 c 1,9,-1
 1130 731 l 2,10,11
 1130 685 1130 685 804 635 c 1,12,-1
 669 596 l 1,13,-1
 650 539 l 1,14,15
 811 425 811 425 1166 366 c 1,16,-1
 1339 366 l 1,17,-1
 1377 328 l 1,18,19
 992 174 992 174 801 174 c 1,20,21
 74 273 74 273 74 558 c 1,22,23
 87 808 87 808 208 808 c 1,24,25
 458 956 458 956 458 1000 c 1,26,-1
 420 1038 l 1,27,-1
 228 1019 l 1,28,29
 151 1019 151 1019 112 1096 c 1,30,-1
 112 1115 l 2,31,32
 112 1326 112 1326 324 1326 c 0,0,1
EndSplineSet
EndChar

StartChar: u10C11
Encoding: 68625 68625 9
Width: 1772
GlyphClass: 2
Flags: MW
LayerCount: 2
Fore
SplineSet
241 1316 m 1,0,-1
 337 1297 l 1,1,-1
 664 1297 l 2,2,3
 1048 1297 1048 1297 1048 1124 c 0,4,5
 1048 1050 1048 1050 683 760 c 1,6,7
 683 726 683 726 875 587 c 1,8,-1
 894 491 l 1,9,-1
 894 472 l 1,10,11
 727 326 727 326 88 184 c 1,12,-1
 30 203 l 1,13,-1
 30 222 l 2,14,15
 30 254 30 254 318 433 c 1,16,-1
 337 529 l 1,17,18
 299 568 299 568 184 568 c 1,19,20
 107 625 107 625 107 721 c 1,21,22
 510 995 510 995 510 1105 c 1,23,-1
 491 1124 l 1,24,-1
 356 1105 l 1,25,-1
 241 1105 l 2,26,27
 95 1105 95 1105 68 1182 c 1,28,-1
 68 1220 l 2,29,30
 68 1250 68 1250 241 1316 c 1,0,-1
1374 1220 m 1,31,32
 1720 1134 1720 1134 1720 1067 c 2,33,-1
 1720 1028 l 1,34,35
 1698 937 1698 937 1412 856 c 1,36,-1
 1355 779 l 1,37,-1
 1604 529 l 1,38,-1
 1604 510 l 1,39,40
 1591 478 1591 478 1048 318 c 1,41,42
 971 347 971 347 971 376 c 1,43,-1
 1105 491 l 1,44,-1
 1105 529 l 1,45,-1
 932 721 l 1,46,47
 932 769 932 769 1220 1009 c 1,48,-1
 1240 1028 l 1,49,-1
 1240 1048 l 1,50,-1
 1175 1170 l 1,51,52
 1253 1218 1253 1218 1374 1220 c 1,31,32
EndSplineSet
EndChar

StartChar: u10C13
Encoding: 68627 68627 10
Width: 1429
GlyphClass: 2
Flags: MW
LayerCount: 2
Fore
SplineSet
977 1288 m 1,0,1
 1341 1246 1341 1246 1341 1153 c 1,2,-1
 1053 731 l 1,3,-1
 1053 692 l 1,4,5
 1074 575 1074 575 1401 344 c 5,6,7
 1401 267 1401 267 1017 267 c 5,8,-1
 785 443 l 1,9,10
 427 212 427 212 151 212 c 1,11,-1
 151 251 l 1,12,13
 497 570 497 570 497 692 c 1,14,-1
 71 1100 l 1,15,16
 144 1158 144 1158 244 1158 c 2,17,-1
 301 1158 l 2,18,19
 393 1158 393 1158 669 961 c 1,20,-1
 727 961 l 1,21,22
 797 1016 797 1016 881 1249 c 1,23,24
 933 1288 933 1288 977 1288 c 1,0,1
EndSplineSet
EndChar

StartChar: u10C14
Encoding: 68628 68628 11
Width: 1786
GlyphClass: 2
Flags: MW
LayerCount: 2
Fore
SplineSet
784 1384 m 1,0,-1
 803 1384 l 2,1,2
 1168 1384 1168 1384 1168 1019 c 0,3,4
 1168 942 1168 942 1225 942 c 1,5,-1
 1398 980 l 1,6,-1
 1417 980 l 2,7,8
 1667 980 1667 980 1744 865 c 1,9,10
 1699 808 1699 808 1648 577 c 1,11,12
 1552 504 1552 504 1427 473.5 c 128,-1,13
 1302 443 1302 443 1264 404 c 1,14,-1
 1221 404 l 1,15,16
 1182 443 1182 443 1206 520 c 2,17,-1
 1283 769 l 1,18,-1
 1206 808 l 1,19,20
 1072 764 1072 764 1072 616 c 1,21,22
 1011 359 1011 359 803 232 c 1,23,-1
 534 116 l 1,24,-1
 495 116 l 1,25,26
 450 120 450 120 477 155 c 0,27,28
 707 440 707 440 707 616 c 1,29,-1
 661 654 l 1,30,31
 444 654 444 654 131 481 c 1,32,33
 35 506 35 506 35 539 c 1,34,35
 169 731 169 731 169 788 c 2,36,-1
 169 923 l 1,37,-1
 131 980 l 1,38,39
 131 1057 131 1057 361 1057 c 2,40,-1
 457 1057 l 1,41,42
 594 1045 594 1045 630 932 c 1,43,-1
 630 769 l 1,44,-1
 669 769 l 1,45,46
 745 788 745 788 745 884 c 0,47,48
 745 1070 745 1070 611 1268 c 1,49,-1
 611 1288 l 2,50,51
 611 1345 611 1345 784 1384 c 1,0,-1
EndSplineSet
EndChar

StartChar: u10C16
Encoding: 68630 68630 12
Width: 1699
GlyphClass: 2
Flags: MW
LayerCount: 2
Fore
SplineSet
485 1364 m 1,0,-1
 753 1230 l 1,1,-1
 830 1230 l 1,2,-1
 1310 1306 l 1,3,4
 1637 1306 1637 1306 1637 999 c 0,5,6
 1637 507 1637 507 657 366 c 1,7,8
 561 304 561 304 561 232 c 1,9,-1
 465 174 l 1,10,-1
 350 173 l 1,11,12
 197 136 197 136 101 136 c 1,13,-1
 43 155 l 1,14,-1
 43 194 l 1,15,16
 177 409 177 409 177 730 c 0,17,18
 177 1035 177 1035 62 1287 c 1,19,-1
 81 1287 l 1,20,21
 208 1345 208 1345 485 1364 c 1,0,-1
696 500 m 1,22,-1
 715 500 l 1,23,24
 1099 647 1099 647 1099 922 c 1,25,-1
 1118 1038 l 1,26,-1
 1118 1057 l 2,27,28
 1118 1172 1118 1172 1003 1172 c 0,29,30
 734 1172 734 1172 734 1038 c 1,31,-1
 696 500 l 1,22,-1
EndSplineSet
EndChar

StartChar: u10C18
Encoding: 68632 68632 13
Width: 1354
GlyphClass: 2
Flags: MW
LayerCount: 2
Fore
SplineSet
662 1289 m 0,1,2
 1290 1289 1290 1289 1290 1059 c 0,3,4
 1290 439.666666667 1290 439.666666667 772 267 c 6,5,-1
 484 171 l 5,6,-1
 393 191 l 5,7,8
 426 276 426 276 561 358 c 4,9,10
 696.203393254 440.513835589 696.203393254 440.513835589 734 536 c 6,11,-1
 772 632 l 5,12,-1
 796 801 l 1,13,14
 618 774 618 774 546 752 c 128,-1,15
 474 730 474 730 426 693 c 1,16,17
 100 780 100 780 100 982 c 0,18,19
 100 1137 100 1137 453 1257 c 1,20,0
 561 1289 561 1289 662 1289 c 0,1,2
542 1020 m 1,21,22
 554 930 554 930 633 883 c 0,23,24
 714 835 714 835 753 835 c 2,25,-1
 803 835 l 1,26,27
 826 921 826 921 830 1040 c 1,28,29
 782 1136 782 1136 657 1136 c 0,30,31
 575 1136 575 1136 542 1020 c 1,21,22
EndSplineSet
EndChar

StartChar: u10C1A
Encoding: 68634 68634 14
Width: 1942
GlyphClass: 2
Flags: MW
LayerCount: 2
Fore
SplineSet
935 1403 m 1,0,1
 1261 1403 1261 1403 1261 1230 c 1,2,-1
 1396 1153 l 1,3,-1
 1588 1153 l 1,4,-1
 1914 1096 l 1,5,-1
 1914 1076 l 1,6,7
 1874 1010 1874 1010 1472 865 c 1,8,-1
 1127 731 l 1,9,10
 1062 731 1062 731 916 212 c 1,11,12
 808 97 808 97 589 97 c 0,13,14
 474 97 474 97 474 232 c 2,15,-1
 474 308 l 1,16,-1
 551 577 l 1,17,-1
 359 577 l 1,18,19
 90 636 90 636 90 808 c 2,20,-1
 90 846 l 2,21,22
 90 1000 90 1000 282 1000 c 2,23,-1
 320 1000 l 2,24,25
 432 1000 432 1000 570 788 c 1,26,-1
 743 731 l 1,27,-1
 1127 884 l 1,28,-1
 1127 961 l 1,29,30
 743 1078 743 1078 743 1192 c 0,31,32
 743 1320 743 1320 935 1403 c 1,0,1
EndSplineSet
EndChar

StartChar: u10C1C
Encoding: 68636 68636 15
Width: 1521
GlyphClass: 2
Flags: MW
LayerCount: 2
Fore
SplineSet
971 1393 m 1,0,-1
 1010 1393 l 1,1,2
 1432 1308 1432 1308 1432 1124 c 0,3,4
 1432 1003 1432 1003 933 894 c 1,5,-1
 895 932 l 1,6,-1
 895 1163 l 1,7,-1
 779 1163 l 1,8,9
 587 1124 587 1124 587 1067 c 2,10,-1
 587 1048 l 1,11,-1
 626 894 l 1,12,-1
 626 716 l 1,13,-1
 818 714 l 1,14,-1
 1163 702 l 1,15,16
 1471 656 1471 656 1471 548 c 1,17,18
 1442 472 1442 472 1294 367 c 1,19,20
 1142 241 1142 241 722 107 c 1,21,-1
 722 126 l 1,22,23
 1048 367 1048 367 1048 491 c 2,24,-1
 1048 587 l 1,25,26
 967 649 967 649 856 625 c 1,27,28
 593 625 593 625 511 299 c 1,29,30
 511 169 511 169 107 145 c 1,31,-1
 165 433 l 1,32,-1
 165 740 l 2,33,34
 163 894 163 894 127 1086 c 1,35,-1
 69 1220 l 1,36,37
 140 1278 140 1278 203 1278 c 1,38,-1
 319 1240 l 1,39,-1
 549 1240 l 1,40,-1
 971 1393 l 1,0,-1
EndSplineSet
EndChar

StartChar: u10C1E
Encoding: 68638 68638 16
Width: 1246
GlyphClass: 2
Flags: MW
LayerCount: 2
Fore
SplineSet
740 1288 m 1,0,1
 1144 1249 1144 1249 1144 884 c 1,2,-1
 1105 520 l 1,3,-1
 1144 347 l 1,4,-1
 1144 308 l 1,5,6
 932 286 932 286 688 212 c 1,7,-1
 644 289 l 1,8,-1
 568 289 l 1,9,-1
 184 232 l 1,10,11
 30 277 30 277 30 347 c 1,12,-1
 625 462 l 1,13,-1
 644 942 l 1,14,-1
 606 1115 l 1,15,16
 606 1226 606 1226 740 1288 c 1,0,1
EndSplineSet
EndChar

StartChar: u10C20
Encoding: 68640 68640 17
Width: 1407
GlyphClass: 2
Flags: MW
LayerCount: 2
Fore
SplineSet
1079 1316 m 1,0,1
 1322 1220 1322 1220 1367 1124 c 1,2,-1
 1367 1086 l 1,3,4
 1126 812 1126 812 926 683 c 1,5,-1
 926 664 l 1,6,-1
 964 395 l 1,7,-1
 964 337 l 2,8,9
 964 238 964 238 619 184 c 1,10,-1
 407 222 l 1,11,12
 407 323 407 323 465 395 c 1,13,14
 347 1048 347 1048 119 1048 c 1,15,-1
 81 1144 l 1,16,-1
 81 1182 l 1,17,18
 100 1240 100 1240 196 1240 c 2,19,-1
 311 1240 l 2,20,21
 395 1240 395 1240 695 1048 c 1,22,-1
 715 1048 l 2,23,24
 749 1048 749 1048 945 1278 c 1,25,-1
 1079 1316 l 1,0,1
EndSplineSet
EndChar

StartChar: u10C22
Encoding: 68642 68642 18
Width: 2148
GlyphClass: 2
Flags: MW
LayerCount: 2
Fore
SplineSet
1278 1480 m 1,0,1
 1480 1166 1480 1166 1851 1166 c 1,2,3
 1851 1135 1851 1135 2128 1111 c 1,4,5
 2038 982 2038 982 1481 760 c 1,6,7
 1481 703 1481 703 1296 538 c 1,8,-1
 1315 316 l 1,9,-1
 1315 242 l 2,10,11
 1315 181 1315 181 908 113 c 1,12,-1
 871 150 l 1,13,-1
 871 335 l 2,14,15
 871 392 871 392 1019 612 c 1,16,-1
 1001 630 l 1,17,18
 705 581 705 581 705 538 c 1,19,20
 594 365 594 365 594 150 c 1,21,-1
 539 113 l 1,22,-1
 446 131 l 1,23,-1
 354 94 l 1,24,25
 280 59 280 59 206 20 c 1,26,-1
 150 20 l 1,27,-1
 132 113 l 1,28,29
 177 313 177 313 465 686 c 1,30,-1
 446 704 l 1,31,32
 95 802 95 802 95 963 c 1,33,34
 128 1166 128 1166 446 1166 c 0,35,36
 527 1166 527 1166 705 963 c 1,37,-1
 816 926 l 1,38,-1
 1056 1074 l 1,39,40
 932 1118 932 1118 853 1222 c 1,41,42
 853 1480 853 1480 1185 1480 c 2,43,-1
 1278 1480 l 1,0,1
1019 871 m 1,44,45
 1019 806 1019 806 1222 778 c 1,46,-1
 1241 778 l 1,47,48
 1489 878 1489 878 1537 944 c 1,49,-1
 1537 1000 l 1,50,-1
 1370 1037 l 1,51,-1
 1259 1037 l 2,52,53
 1179 1037 1179 1037 1019 871 c 1,44,45
EndSplineSet
EndChar

StartChar: u10C23
Encoding: 68643 68643 19
Width: 1378
GlyphClass: 2
Flags: MW
LayerCount: 2
Fore
SplineSet
626 1268 m 1,0,1
 1298 1246 1298 1246 1298 942 c 2,2,-1
 1298 765 l 6,3,4
 1298 510 1298 510 319 132 c 5,5,6
 184 132 184 132 184 170 c 5,7,8
 760 518 760 518 760 650 c 5,9,10
 804 767 804 767 760 884 c 1,11,12
 712 986 712 986 607 1038 c 1,13,14
 491 1074 491 1074 376 1038 c 1,15,-1
 242 961 l 1,16,17
 107 961 107 961 69 1000 c 1,18,19
 331 1178 331 1178 626 1268 c 1,0,1
EndSplineSet
EndChar

StartChar: u10C24
Encoding: 68644 68644 20
Width: 2307
GlyphClass: 2
Flags: MW
LayerCount: 2
Fore
SplineSet
1213 1480 m 1,0,1
 1635 1392 1635 1392 1635 1153 c 1,2,-1
 1616 1003 l 1,3,-1
 1616 888 l 1,4,-1
 1635 868 l 1,5,-1
 1750 868 l 1,6,-1
 1750 1137 l 1,7,8
 1779 1444 1779 1444 2019 1444 c 0,9,10
 2211 1444 2211 1444 2211 1176 c 1,11,-1
 2249 984 l 1,12,13
 2249 814 2249 814 1865 753 c 1,14,-1
 1673 753 l 1,15,16
 1595 729 1595 729 1520 443 c 1,17,18
 1328 245 1328 245 1040 136 c 1,19,-1
 925 136 l 1,20,-1
 886 174 l 1,21,22
 1059 562 1059 562 1059 654 c 2,23,-1
 1059 673 l 1,24,-1
 944 673 l 1,25,26
 944 366 944 366 45 20 c 1,27,-1
 7 20 l 1,28,29
 21 59 21 59 54 79 c 0,30,31
 502 355 502 355 502 731 c 1,32,-1
 387 865 l 2,33,34
 373 882 373 882 387 904 c 0,35,36
 447 1003 447 1003 560 1038 c 1,37,38
 771 1038 771 1038 1001 884 c 1,39,-1
 1059 904 l 1,40,-1
 1059 923 l 1,41,-1
 963 1307 l 1,42,43
 1037 1480 1037 1480 1213 1480 c 1,0,1
EndSplineSet
EndChar

StartChar: u10C26
Encoding: 68646 68646 21
Width: 1445
GlyphClass: 2
Flags: MW
LayerCount: 2
Fore
SplineSet
810 1332 m 2,0,-1
 983 1332 l 1,1,2
 1367 1226 1367 1226 1367 1120 c 2,3,-1
 1367 961 l 2,4,5
 1367 679 1367 679 1117 400 c 1,6,-1
 791 265 l 1,7,-1
 675 323 l 1,8,-1
 330 188 l 1,9,10
 167 188 167 188 61 692 c 1,11,12
 184 1089 184 1089 311 1178 c 1,13,14
 649 1332 649 1332 810 1332 c 2,0,-1
445 986 m 2,15,-1
 445 808 l 1,16,-1
 464 808 l 1,17,-1
 752 865 l 1,18,-1
 771 865 l 1,19,-1
 867 846 l 1,20,-1
 867 787 l 2,21,22
 867 748 867 748 599 652 c 1,23,-1
 483 652 l 1,24,-1
 483 476 l 2,25,26
 483 414 483 414 791 342 c 1,27,-1
 983 865 l 1,28,29
 983 1132 983 1132 637 1159 c 1,30,31
 445 1140 445 1140 445 986 c 2,15,-1
EndSplineSet
EndChar

StartChar: u10C28
Encoding: 68648 68648 22
Width: 1424
GlyphClass: 2
Flags: MW
LayerCount: 2
Fore
SplineSet
454 1422 m 1,0,-1
 493 1422 l 2,1,2
 589 1422 589 1422 723 1192 c 1,3,-1
 1030 1192 l 1,4,5
 1395 1134 1395 1134 1395 1076 c 0,6,7
 1395 991 1395 991 992 942 c 1,8,9
 783 864 783 864 760 808 c 1,10,-1
 915 808 l 1,11,12
 1280 750 1280 750 1280 654 c 1,13,14
 827 423 827 423 819 385 c 1,15,-1
 781 347 l 1,16,-1
 781 308 l 1,17,-1
 896 193 l 1,18,19
 896 130 896 130 358 78 c 1,20,-1
 339 78 l 2,21,22
 225 78 225 78 185 193 c 1,23,24
 185 335 185 335 608 558 c 1,25,26
 627 577 627 577 647 616 c 1,27,-1
 320 616 l 1,28,29
 51 635 51 635 51 692 c 0,30,31
 51 750 51 750 704 961 c 1,32,33
 704 1000 704 1000 416 1000 c 0,34,35
 196 1000 196 1000 70 1230 c 1,36,37
 70 1345 70 1345 454 1422 c 1,0,-1
EndSplineSet
EndChar

StartChar: u10C2A
Encoding: 68650 68650 23
Width: 1433
GlyphClass: 2
Flags: MW
LayerCount: 2
Fore
SplineSet
865 1328 m 1,0,1
 1254 1328 1254 1328 1386 1096 c 1,2,-1
 1386 1076 l 2,3,4
 1386 916 1386 916 1127 750 c 1,5,6
 1200 714 1200 714 1213 635 c 1,7,8
 1213 226 1213 226 365 172 c 1,9,-1
 289 172 l 1,10,-1
 289 211 l 1,11,12
 671 445 671 445 677 480 c 5,13,-1
 752 583 l 5,14,15
 552 582 552 582 76 470 c 1,16,17
 41 470 41 470 23 475 c 1,18,19
 36 503 36 503 45 512 c 0,20,21
 89 555 89 555 234 620 c 1,22,-1
 522 787 l 1,23,24
 484 808 484 808 426 808 c 1,25,-1
 177 788 l 1,26,-1
 177 808 l 2,27,28
 177 888 177 888 561 923 c 1,29,-1
 695 904 l 1,30,31
 759 904 759 904 868 1076 c 1,32,33
 868 1193 868 1193 477 1193 c 2,34,-1
 427 1193 l 1,35,-1
 439 1232 l 1,36,37
 439 1303 439 1303 865 1328 c 1,0,1
EndSplineSet
EndChar

StartChar: u10C2D
Encoding: 68653 68653 24
Width: 1300
GlyphClass: 2
Flags: MW
LayerCount: 2
Fore
SplineSet
753 1345 m 1,0,-1
 869 1345 l 1,1,2
 1176 1267 1176 1267 1176 1038 c 2,3,-1
 1176 712 l 1,4,-1
 1195 539 l 1,5,6
 1195 251 1195 251 992 218 c 1,7,8
 945 199 945 199 715 155 c 1,9,10
 677 157 677 157 677 232 c 1,11,-1
 715 385 l 1,12,-1
 715 654 l 1,13,-1
 293 644 l 1,14,-1
 177 616 l 1,15,16
 43 661 43 661 43 752 c 0,17,18
 43 817 43 817 677 866 c 1,19,-1
 677 1134 l 1,20,-1
 657 1326 l 1,21,-1
 753 1345 l 1,0,-1
EndSplineSet
EndChar

StartChar: u10C2F
Encoding: 68655 68655 25
Width: 1444
GlyphClass: 2
Flags: MW
LayerCount: 2
Fore
SplineSet
1019 1307 m 1,0,-1
 1153 1287 l 1,1,-1
 1172 1307 l 1,2,-1
 1191 1307 l 1,3,4
 1383 1249 1383 1249 1383 1115 c 2,5,-1
 1383 1076 l 1,6,-1
 1268 692 l 1,7,-1
 1268 519 l 1,8,-1
 1326 212 l 1,9,-1
 1307 212 l 1,10,-1
 846 193 l 1,11,12
 692 251 692 251 692 423 c 2,13,-1
 692 806 l 1,14,-1
 711 940 l 1,15,-1
 692 959 l 1,16,-1
 327 959 l 1,17,-1
 97 940 l 1,18,19
 97 1057 97 1057 169 1071 c 2,20,-1
 385 1115 l 1,21,-1
 731 1115 l 1,22,23
 731 1268 731 1268 865 1268 c 1,24,-1
 1019 1307 l 1,0,-1
EndSplineSet
EndChar

StartChar: u10C32
Encoding: 68658 68658 26
Width: 1418
GlyphClass: 2
Flags: MW
LayerCount: 2
Fore
SplineSet
798 1345 m 0,0,1
 1182 1345 1182 1345 1182 1115 c 2,2,-1
 1182 1096 l 2,3,4
 1182 895 1182 895 875 635 c 1,5,-1
 875 616 l 1,6,7
 1393 475 1393 475 1393 347 c 2,8,-1
 1393 328 l 1,9,-1
 952 193 l 1,10,-1
 933 193 l 1,11,12
 780 424 780 424 587 424 c 1,13,14
 213 155 213 155 69 155 c 1,15,-1
 11 174 l 1,16,-1
 11 193 l 1,17,18
 645 744 645 744 645 1134 c 0,19,20
 645 1345 645 1345 798 1345 c 0,0,1
EndSplineSet
EndChar

StartChar: u10C34
Encoding: 68660 68660 27
Width: 1468
GlyphClass: 2
Flags: MW
LayerCount: 2
Fore
SplineSet
1106 1432 m 0,0,1
 1313 1432 1313 1432 1337 1105 c 1,2,-1
 1337 356 l 1,3,-1
 1356 222 l 1,4,5
 1248 146 1248 146 1164 145 c 1,6,-1
 1049 134 l 1,7,-1
 972 126 l 1,8,9
 927 193 927 193 876 548 c 1,10,-1
 876 817 l 1,11,-1
 701 817 l 1,12,-1
 701 702 l 2,13,14
 701 426 701 426 242 126 c 1,15,-1
 12 68 l 1,16,-1
 12 88 l 1,17,18
 242 236 242 236 242 529 c 1,19,-1
 262 587 l 1,20,-1
 262 702 l 1,21,22
 222 799 222 799 89 894 c 1,23,-1
 89 932 l 2,24,25
 89 964 89 964 204 1009 c 1,26,-1
 204 1028 l 1,27,-1
 569 971 l 1,28,-1
 876 971 l 1,29,-1
 876 1048 l 1,30,-1
 894 1201 l 1,31,-1
 895 1297 l 1,32,33
 1028 1432 1028 1432 1106 1432 c 0,0,1
EndSplineSet
EndChar

StartChar: u10C36
Encoding: 68662 68662 28
Width: 1609
GlyphClass: 2
Flags: MW
LayerCount: 2
Fore
SplineSet
1278 289 m 1,0,1
 1310 232 1310 232 1298 177 c 2,2,-1
 1294 158 l 1,3,-1
 836 114 l 1,4,-1
 816 118 l 1,5,6
 646 388 646 388 148 630 c 1,7,8
 116 638 116 638 82 646 c 1,9,-1
 30 677 l 1,10,-1
 34 695 l 1,11,12
 832 1095 832 1095 884 1348 c 0,13,14
 926 1555 926 1555 1076 1525 c 0,15,16
 1404 1458 1404 1458 1410 1277 c 1,17,18
 1544 1252 1544 1252 1544 1131 c 1,19,20
 1468 881 1468 881 1468 716 c 2,21,-1
 1468 600 l 1,22,-1
 1486 428 l 1,23,24
 1486 351 1486 351 1316 312 c 1,25,26
 1296 299 1296 299 1278 289 c 1,0,1
1100 465 m 1,27,28
 1100 475 1100 475 1102 485 c 2,29,-1
 1140 862 l 1,30,31
 1140 953 1140 953 1148 1024 c 1,32,33
 1070 991 1070 991 968 955 c 2,34,-1
 470 760 l 1,35,36
 892 605 892 605 1100 465 c 1,27,28
EndSplineSet
EndChar

StartChar: u10C38
Encoding: 68664 68664 29
Width: 1581
GlyphClass: 2
Flags: MW
LayerCount: 2
Fore
SplineSet
590 1268 m 2,0,-1
 782 1268 l 2,1,2
 922 1268 922 1268 974 1134 c 1,3,-1
 935 942 l 1,4,5
 935 846 935 846 955 827 c 1,6,-1
 974 539 l 1,7,-1
 974 462 l 1,8,-1
 993 462 l 2,9,10
 1052 462 1052 462 1147 673 c 1,11,-1
 1243 692 l 1,12,-1
 1435 692 l 1,13,-1
 1531 673 l 1,14,-1
 1531 654 l 1,15,16
 1341 373 1341 373 820 232 c 1,17,-1
 628 232 l 2,18,19
 513 232 513 232 513 385 c 1,20,21
 328 354 328 354 206 270 c 1,22,23
 159 270 159 270 33 424 c 1,24,-1
 33 462 l 2,25,26
 33 533 33 533 321 577 c 1,27,-1
 359 577 l 1,28,-1
 513 539 l 1,29,-1
 513 1038 l 1,30,-1
 475 1192 l 1,31,32
 494 1268 494 1268 590 1268 c 2,0,-1
EndSplineSet
EndChar

StartChar: u10C3A
Encoding: 68666 68666 30
Width: 1395
GlyphClass: 2
Flags: MW
LayerCount: 2
Fore
SplineSet
1020 1345 m 0,0,1
 1328 1345 1328 1345 1328 1192 c 1,2,3
 1251 942 1251 942 1251 616 c 2,4,-1
 1251 500 l 1,5,-1
 1270 328 l 1,6,7
 1270 251 1270 251 1100 212 c 1,8,9
 1012 155 1012 155 867 155 c 0,10,11
 790 155 790 155 790 385 c 2,12,-1
 790 539 l 1,13,-1
 732 558 l 1,14,15
 579 558 579 558 118 385 c 1,16,-1
 80 385 l 1,17,-1
 22 443 l 1,18,19
 195 559 195 559 195 673 c 2,20,-1
 195 904 l 1,21,-1
 176 1096 l 1,22,23
 274 1153 274 1153 368 1153 c 2,24,-1
 464 1153 l 2,25,26
 610 1153 610 1153 636 961 c 1,27,-1
 598 654 l 1,28,-1
 636 654 l 2,29,30
 828 654 828 654 828 923 c 0,31,32
 828 1345 828 1345 1020 1345 c 0,0,1
EndSplineSet
EndChar

StartChar: u10C3C
Encoding: 68668 68668 31
Width: 1981
GlyphClass: 2
Flags: MW
LayerCount: 2
Fore
SplineSet
1530 1287 m 2,0,-1
 1549 1287 l 2,1,2
 1741 1287 1741 1287 1741 1114 c 1,3,4
 1810 980 1810 980 1952 980 c 1,5,-1
 1952 942 l 1,6,-1
 1645 865 l 1,7,-1
 1606 865 l 1,8,-1
 1357 942 l 1,9,-1
 1318 942 l 1,10,-1
 1261 865 l 1,11,12
 1413 668 1413 668 1434 481 c 1,13,14
 1434 335 1434 335 1088 289 c 1,15,-1
 992 212 l 1,16,-1
 934 212 l 2,17,18
 886 212 886 212 838 673 c 1,19,20
 748 807 748 807 704 807 c 1,21,-1
 32 654 l 1,22,-1
 32 692 l 1,23,24
 531 834 531 834 531 1191 c 0,25,26
 531 1237 531 1237 685 1249 c 1,27,28
 877 1249 877 1249 1069 1057 c 1,29,-1
 1128 1015 l 1,30,31
 1350 1287 1350 1287 1530 1287 c 2,0,-1
EndSplineSet
EndChar

StartChar: u10C3D
Encoding: 68669 68669 32
Width: 1644
GlyphClass: 2
Flags: MW
LayerCount: 2
Fore
SplineSet
1518 1441 m 0,1,2
 1601 1441 1601 1441 1626 1380 c 1,3,-1
 1626 1334 l 1,4,5
 1560 1201 1560 1201 1319 1026 c 1,6,-1
 1319 1011 l 1,7,-1
 1503 950 l 1,8,-1
 1527 920 l 1,9,-1
 1488 904 l 1,10,-1
 1196 857 l 1,11,-1
 1012 857 l 1,12,-1
 766 765 l 1,13,14
 981 624 981 624 981 489 c 1,15,16
 808 151 808 151 582 151 c 1,17,-1
 90 59 l 1,18,-1
 75 74 l 1,19,-1
 75 90 l 1,20,21
 366 197 366 197 459 397 c 1,22,23
 405 596 405 596 182 596 c 1,24,-1
 105 550 l 1,25,-1
 59 550 l 1,26,-1
 44 627 l 1,27,-1
 44 673 l 1,28,29
 138 811 138 811 336 811 c 1,30,-1
 520 842 l 1,31,32
 658 876 658 876 658 919 c 1,33,34
 428 1114 428 1114 428 1226 c 0,35,36
 428 1380 428 1380 812 1395 c 1,37,38
 877 1379 877 1379 981 1195 c 1,39,-1
 996 1195 l 2,40,41
 1080 1195 1080 1195 1227 1395 c 1,42,0
 1380 1441 1380 1441 1518 1441 c 0,1,2
EndSplineSet
EndChar

StartChar: u10C3E
Encoding: 68670 68670 33
Width: 768
GlyphClass: 2
Flags: MW
LayerCount: 2
Fore
SplineSet
225 1355 m 1,0,1
 648 1355 648 1355 648 1028 c 2,2,-1
 648 491 l 1,3,4
 512 164 512 164 245 164 c 1,5,-1
 149 145 l 1,6,-1
 91 164 l 1,7,-1
 149 395 l 1,8,-1
 149 894 l 1,9,-1
 129 1067 l 1,10,-1
 110 1240 l 1,11,12
 110 1310 110 1310 225 1355 c 1,0,1
EndSplineSet
EndChar

StartChar: u10C41
Encoding: 68673 68673 34
Width: 1780
GlyphClass: 2
Flags: MW
LayerCount: 2
Fore
SplineSet
1399 1345 m 1,0,1
 1572 1334 1572 1334 1572 1288 c 1,2,3
 1506 1151 1506 1151 1169 904 c 1,4,-1
 1169 884 l 1,5,-1
 1265 865 l 1,6,-1
 1553 865 l 2,7,8
 1764 865 1764 865 1764 808 c 1,9,10
 1493 673 1493 673 1188 673 c 1,11,12
 1150 635 1150 635 1130 376 c 1,13,14
 937 203 937 203 631 155 c 1,15,-1
 574 174 l 1,16,-1
 631 500 l 1,17,-1
 593 654 l 1,18,-1
 535 654 l 1,19,-1
 190 577 l 1,20,21
 36 600 36 600 36 654 c 0,22,23
 36 736 36 736 439 808 c 1,24,-1
 439 827 l 1,25,-1
 247 1019 l 1,26,-1
 228 1134 l 1,27,28
 283 1205 283 1205 382 1211 c 1,29,30
 698 1211 698 1211 900 1019 c 1,31,-1
 938 1019 l 1,32,33
 1195 1345 1195 1345 1380 1345 c 2,34,-1
 1399 1345 l 1,0,1
EndSplineSet
EndChar

StartChar: u10C43
Encoding: 68675 68675 35
Width: 1920
GlyphClass: 2
Flags: MW
LayerCount: 2
Fore
SplineSet
916 1432 m 2,0,-1
 1108 1432 l 2,1,2
 1256 1432 1256 1432 1319 1144 c 1,3,-1
 1838 1048 l 1,4,5
 1883 1045 1883 1045 1898 1019 c 1,6,7
 1871 998 1871 998 1838 990 c 0,8,9
 1573 913 1573 913 1396 913 c 1,10,-1
 1147 971 l 1,11,-1
 1051 971 l 1,12,-1
 340 683 l 1,13,14
 266 644 266 644 129 644 c 1,15,16
 33 659 33 659 33 702 c 1,17,18
 59 742 59 742 436 856 c 1,19,20
 782 1057 782 1057 782 1220 c 2,21,-1
 782 1355 l 1,22,23
 813 1432 813 1432 916 1432 c 2,0,-1
993 779 m 1,24,-1
 1012 779 l 2,25,26
 1723 779 1723 779 1723 433 c 0,27,28
 1723 318 1723 318 1415 164 c 1,29,30
 1322 88 1322 88 1127 88 c 1,31,-1
 1051 126 l 1,32,33
 1223 364 1223 364 1223 414 c 0,34,35
 1223 491 1223 491 1127 548 c 1,36,37
 993 548 993 548 993 414 c 2,38,-1
 993 299 l 1,39,-1
 1012 203 l 1,40,41
 953 155 953 155 647 68 c 1,42,43
 526 68 526 68 494 318 c 1,44,45
 494 602 494 602 993 779 c 1,24,-1
EndSplineSet
EndChar

StartChar: u10C45
Encoding: 68677 68677 36
Width: 1476
GlyphClass: 2
Flags: MW
LayerCount: 2
Fore
SplineSet
325 1288 m 0,0,1
 527 1288 527 1288 690 1057 c 1,2,-1
 709 1057 l 1,3,-1
 1228 1134 l 1,4,5
 1314 1134 1314 1134 1401 1096 c 1,6,-1
 1380 989 l 1,7,8
 1369 871 1369 871 1362 635 c 1,9,-1
 1362 558 l 1,10,-1
 978 462 l 1,11,12
 891 462 891 462 863 692 c 1,13,-1
 921 923 l 1,14,-1
 901 942 l 1,15,-1
 863 942 l 2,16,17
 760 942 760 942 729 865 c 1,18,-1
 729 808 l 2,19,20
 729 431 729 431 441 308 c 1,21,22
 281 232 281 232 133 212 c 1,23,-1
 133 232 l 1,24,25
 210 490 210 490 210 712 c 0,26,27
 210 846 210 846 152.5 978.5 c 128,-1,28
 95 1111 95 1111 95 1211 c 1,29,30
 173 1288 173 1288 325 1288 c 0,0,1
EndSplineSet
EndChar

StartChar: u10C21
Encoding: 68641 68641 37
Width: 1545
Flags: MW
LayerCount: 2
Fore
SplineSet
1137 1278 m 5,0,1
 1139 1390 1139 1390 1333 1390 c 5,2,3
 1448 1345 1448 1345 1448 1275 c 5,4,5
 1448 1275 1448 1275 1429 1102 c 5,6,-1
 1409 889 l 5,7,-1
 1409 420 l 5,8,-1
 1417 189 l 5,9,-1
 1359 170 l 5,10,-1
 1223 189 l 5,11,12
 1094 189 1094 189 1086 471 c 5,13,14
 1086 692 1086 692 1087 864 c 5,15,16
 1012 789 1012 789 936 714 c 5,17,18
 928 591 928 591 920 468 c 5,19,20
 920 468 920 468 874 467 c 5,21,-1
 787 492 l 5,22,23
 641 736 641 736 495 981 c 5,24,25
 495 511 495 511 495 511 c 5,26,27
 359 184 359 184 312 184 c 5,28,29
 312 184 312 184 176 165 c 5,30,-1
 118 184 l 5,31,-1
 136 415 l 5,32,-1
 136 884 l 5,33,-1
 156 1057 l 5,34,-1
 137 1270 l 5,35,36
 137 1340 137 1340 252 1385 c 5,37,38
 295 1385 295 1385 330 1375 c 5,39,40
 420 1365 420 1365 571 1294 c 5,41,42
 571 1294 571 1294 826 856 c 5,43,44
 982 1179 982 1179 1137 1278 c 5,0,1
EndSplineSet
EndChar

StartChar: u10C31
Encoding: 68657 68657 38
Width: 1441
Flags: MW
LayerCount: 2
Fore
SplineSet
536 206 m 0,0,1
 262 206 262 206 262 436 c 2,2,-1
 262 455 l 2,3,4
 262 621 262 621 539 856 c 1,5,-1
 539 875 l 1,6,7
 51 1085 51 1085 51 1204 c 2,8,-1
 51 1223 l 1,9,-1
 432 1358 l 1,10,-1
 451 1358 l 1,11,12
 492 1318 492 1318 626 986 c 1,13,14
 643 1203 643 1203 660 1420 c 1,15,16
 775 1424 775 1424 891 1429 c 1,17,18
 983.403911449 1437.89349295 983.403911449 1437.89349295 961 1396 c 0,19,20
 860 1208 860 1208 783 1018 c 5,21,22
 836 1109 836 1109 836 1109 c 1,23,24
 1220 1481 1220 1481 1375 1396 c 1,25,-1
 1433 1377 l 1,26,-1
 1433 1358 l 1,27,28
 799 807 799 807 799 441 c 0,29,30
 799 206 799 206 536 206 c 0,0,1
EndSplineSet
EndChar

StartChar: semicolon
Encoding: 59 59 39
Width: 644
Flags: MW
LayerCount: 2
Fore
SplineSet
461 1071 m 1,0,1
 526 1068 526 1068 557 885 c 1,2,3
 557 791 557 791 112 789 c 1,4,5
 112 1047 112 1047 461 1071 c 1,0,1
429 297 m 4,6,7
 548 207 548 207 336 -334 c 5,8,9
 288 -382 288 -382 280 -375 c 5,10,11
 185 -339 185 -339 144 185 c 5,12,13
 314 384 314 384 429 297 c 4,6,7
EndSplineSet
EndChar

StartChar: comma
Encoding: 44 44 40
Width: 522
Flags: MW
LayerCount: 2
Fore
SplineSet
326 324 m 4,0,1
 520 175 520 175 313 -354 c 1,2,3
 277 -390 277 -390 283 -395 c 1,4,5
 148 -345 148 -345 105 202 c 5,6,7
 255 378 255 378 326 324 c 4,0,1
EndSplineSet
EndChar

StartChar: period
Encoding: 46 46 42
Width: 676
Flags: MW
LayerCount: 2
Fore
SplineSet
436 368 m 4,0,1
 527 368 527 368 544 108 c 1,2,3
 436 56 436 56 203 47 c 1,4,5
 126 67 126 67 126 256 c 5,6,7
 221 368 221 368 436 368 c 4,0,1
EndSplineSet
EndChar
